<svg xmlns="http://www.w3.org/2000/svg" version="1.1" xmlns:xlink="http://www.w3.org/1999/xlink" xmlns:svgjs="http://svgjs.dev/svgjs" width="1000" height="1000" viewBox="0 0 1000 1000"><rect width="1000" height="1000" fill="#000000"></rect><g transform="matrix(0.7,0,0,0.7,150,150.00015623869865)"><svg viewBox="0 0 280 280" data-background-color="#ffffff" preserveAspectRatio="xMidYMid meet" height="1000" width="1000" xmlns="http://www.w3.org/2000/svg" xmlns:xlink="http://www.w3.org/1999/xlink"><g id="tight-bounds" transform="matrix(1,0,0,1,0,0.00006249547942616118)"><svg viewBox="0 0 280 280" height="280" width="280"><g><svg viewBox="0 0 280 280" height="280" width="280"><g><svg viewBox="0 0 280 280" height="280" width="280"><g id="textblocktransform"><svg viewBox="0 0 280 280" height="280" width="280" id="textblock"><g><svg viewBox="0 0 280 280" height="280" width="280"><g transform="matrix(1,0,0,1,117.66051571312667,90.50252531694167)"><svg viewBox="0 0 44.67896857374666 98.99494936611666" height="98.99494936611666" width="44.67896857374666"><g><svg xmlns="http://www.w3.org/2000/svg" xmlns:xlink="http://www.w3.org/1999/xlink" version="1.1" x="0" y="0" viewBox="36.441993713378906 19.957000732421875 27.11700439453125 60.08300018310547" enable-background="new 0 0 100 100" xml:space="preserve" height="98.99494936611666" width="44.67896857374666" class="icon-o-0" data-fill-palette-color="accent" id="o-0"><path fill="#ffffff" d="M63.559 49.807c0-1.084-0.38-2.116-1.055-2.931 0.555-0.767 0.859-1.692 0.859-2.662 0-1.24-0.5-2.397-1.355-3.244 0.505-0.744 0.779-1.624 0.779-2.54 0-1.389-0.619-2.67-1.65-3.529 0.321-0.635 0.494-1.338 0.494-2.062 0-1.896-1.19-3.567-2.896-4.251-0.006-2.352-1.789-4.294-4.075-4.552-0.255-2.291-2.216-4.079-4.754-4.079-2.36 0-4.312 1.788-4.567 4.079-2.286 0.257-4.07 2.2-4.074 4.552-1.708 0.684-2.896 2.354-2.896 4.251 0 0.724 0.171 1.428 0.494 2.063-1.028 0.857-1.647 2.139-1.647 3.528 0 0.916 0.274 1.793 0.777 2.539-0.856 0.847-1.355 2.004-1.355 3.245 0 0.97 0.305 1.895 0.861 2.662-0.676 0.815-1.057 1.848-1.057 2.931 0 1.269 0.522 2.453 1.4 3.301-0.648 0.799-1.012 1.801-1.012 2.869 0 1.837 1.081 3.433 2.675 4.157-0.112 0.4-0.17 0.816-0.17 1.238 0 2.285 1.677 4.185 3.865 4.534 0.152 2.397 2.15 4.301 4.583 4.301 0.477 0 0.94-0.083 1.385-0.227v8.938c0 0.618 0.502 1.122 1.122 1.122 0.619 0 1.122-0.504 1.122-1.122v-8.793c0.264 0.048 0.532 0.081 0.806 0.081 2.435 0 4.433-1.903 4.584-4.301 2.188-0.35 3.865-2.249 3.865-4.534 0-0.422-0.058-0.838-0.169-1.238 1.592-0.725 2.673-2.32 2.673-4.157 0-1.069-0.361-2.071-1.011-2.871C63.039 52.259 63.559 51.076 63.559 49.807zM59.761 53.962c0.73 0.429 1.166 1.183 1.166 2.016 0 1.197-0.906 2.194-2.107 2.317-0.394 0.04-0.735 0.283-0.902 0.644-0.167 0.359-0.132 0.779 0.091 1.105 0.271 0.396 0.415 0.855 0.415 1.329 0 1.297-1.055 2.349-2.352 2.349-0.097 0-0.193-0.017-0.33-0.038-0.362-0.055-0.743 0.078-0.99 0.355-0.252 0.275-0.349 0.659-0.261 1.021 0.05 0.209 0.076 0.392 0.076 0.555 0 1.296-1.055 2.348-2.35 2.348-0.306 0-0.571-0.065-0.806-0.156v-8.188l5.165-5.162c0.438-0.438 0.441-1.148 0.003-1.587s-1.148-0.438-1.587 0l-3.581 3.578v-5.604l5.165-5.162c0.438-0.438 0.441-1.147 0.003-1.586-0.438-0.438-1.148-0.438-1.587 0l-3.581 3.578v-5.593l5.168-5.171c0.438-0.438 0.436-1.149-0.003-1.586-0.438-0.438-1.147-0.438-1.586 0l-3.579 3.581v-9.533c0-0.619-0.503-1.122-1.122-1.122-0.62 0-1.122 0.503-1.122 1.122v9.435l-3.484-3.482c-0.438-0.438-1.147-0.438-1.586 0-0.438 0.437-0.438 1.147 0 1.586l5.07 5.071v5.598l-3.484-3.481c-0.441-0.44-1.149-0.437-1.586 0-0.438 0.438-0.438 1.149 0 1.586l5.07 5.064v5.604l-3.484-3.481c-0.441-0.44-1.149-0.437-1.586 0-0.438 0.438-0.438 1.149 0 1.587l5.07 5.064v7.966c-0.311 0.234-0.772 0.476-1.385 0.476-1.295 0-2.349-1.052-2.349-2.348 0-0.163 0.025-0.346 0.076-0.555 0.089-0.362-0.029-0.741-0.281-1.019-0.25-0.275-0.641-0.405-1.014-0.352-1.344 0.205-2.64-0.926-2.638-2.317 0-0.474 0.143-0.934 0.415-1.325 0.225-0.326 0.262-0.747 0.095-1.107-0.165-0.36-0.51-0.605-0.904-0.646-1.203-0.123-2.109-1.12-2.109-2.317 0-0.832 0.437-1.586 1.167-2.018 0.364-0.215 0.575-0.616 0.548-1.039-0.027-0.422-0.289-0.793-0.678-0.958-0.866-0.369-1.426-1.217-1.426-2.156 0-0.78 0.387-1.51 1.037-1.95 0.295-0.202 0.478-0.531 0.491-0.889 0.012-0.358-0.148-0.702-0.431-0.922-0.573-0.449-0.901-1.116-0.901-1.831 0-0.875 0.494-1.674 1.288-2.08 0.339-0.173 0.567-0.508 0.605-0.887 0.038-0.378-0.118-0.75-0.417-0.989-0.571-0.456-0.898-1.124-0.898-1.829 0-0.948 0.563-1.798 1.435-2.165 0.34-0.143 0.587-0.444 0.663-0.805 0.075-0.362-0.032-0.736-0.286-1.004-0.424-0.444-0.657-1.02-0.657-1.618 0-1.159 0.874-2.154 2.032-2.312 0.314-0.044 0.596-0.219 0.774-0.481 0.178-0.262 0.238-0.588 0.162-0.896-0.05-0.205-0.073-0.38-0.073-0.553 0-1.44 1.39-2.547 2.79-2.303 0.368 0.074 0.741-0.05 1-0.315 0.262-0.266 0.374-0.643 0.301-1.008-0.026-0.134-0.045-0.276-0.045-0.422 0-1.294 1.055-2.346 2.241-2.352 0.051 0.005 0.25 0.001 0.304 0.005 1.294 0 2.345 1.052 2.345 2.346 0 0.146-0.017 0.288-0.046 0.422-0.07 0.363 0.041 0.74 0.301 1.005 0.257 0.265 0.641 0.392 0.996 0.32 1.438-0.257 2.796 0.858 2.796 2.302 0 0.172-0.023 0.348-0.073 0.553-0.076 0.308-0.018 0.634 0.161 0.896 0.178 0.262 0.462 0.437 0.774 0.481 1.16 0.159 2.032 1.154 2.032 2.312 0 0.598-0.232 1.174-0.656 1.618-0.254 0.268-0.362 0.642-0.287 1.004 0.076 0.361 0.325 0.662 0.664 0.805 0.874 0.368 1.437 1.218 1.437 2.165 0 0.705-0.327 1.372-0.899 1.828-0.298 0.236-0.455 0.611-0.417 0.989 0.038 0.38 0.266 0.715 0.604 0.888 0.794 0.406 1.288 1.204 1.288 2.08 0 0.715-0.33 1.382-0.903 1.831-0.28 0.22-0.44 0.564-0.43 0.922 0.013 0.359 0.196 0.689 0.495 0.89 0.647 0.438 1.034 1.167 1.034 1.949 0 0.939-0.559 1.787-1.427 2.156-0.389 0.165-0.65 0.536-0.678 0.958C59.182 53.344 59.396 53.745 59.761 53.962z" data-fill-palette-color="accent"></path></svg></g></svg></g><path d="M20.722 187.973c0.429 0.748 1.346 2.284 2.75 4.608v0l1.893 3.163c-0.253 0.523-0.482 0.969-0.686 1.339-0.2 0.362-0.404 0.578-0.61 0.65v0c-0.236 0.082-0.514 0.046-0.832-0.109-0.318-0.154-0.868-0.494-1.648-1.017v0c-0.09-0.064-0.226-0.122-0.407-0.175-0.187-0.05-0.314-0.132-0.38-0.245v0l-0.732-1.08c-0.64-0.905-1.178-1.72-1.613-2.446-0.435-0.725-0.792-1.488-1.069-2.288v0c-0.985-2.837-0.947-5.448 0.113-7.833v0c0.383-0.894 0.828-1.636 1.336-2.227 0.508-0.591 1.132-1.014 1.872-1.271v0c0.321-0.112 0.563-0.178 0.725-0.201v0c3.086-0.541 5.752-0.873 7.999-0.993v0c2.457-0.16 6.657-0.361 12.597-0.604v0c1.397-0.084 3.499-0.182 6.307-0.294v0c0.75-0.03 1.323 0.094 1.718 0.372 0.395 0.277 0.685 0.781 0.871 1.511v0c0.051 0.145 0.084 0.29 0.1 0.434 0.016 0.144 0.049 0.289 0.099 0.434v0c0.49 1.881-0.077 3.104-1.702 3.668v0c-0.412 0.143-0.863 0.235-1.351 0.275v0c-1.028 0.092-2.451 0.09-4.27-0.005v0c-6.917-0.282-13.424-0.095-19.52 0.561v0c-0.77 0.07-1.54 0.239-2.31 0.506v0c-1.443 0.501-1.943 1.388-1.501 2.661v0c0.093 0.267 0.176 0.469 0.251 0.606zM37.94 211.612c-0.326-0.164-0.65-0.498-0.972-1.001v0c-0.118-0.184-0.246-0.414-0.386-0.69-0.143-0.282-0.286-0.506-0.431-0.673v0c-0.735 0.768-1.12 1.72-1.154 2.855-0.035 1.135 0.261 2.191 0.888 3.169v0c0.54 0.843 1.206 1.472 1.997 1.887v0c1.124 0.659 2.255 1.123 3.395 1.391v0c0.824 0.18 1.38 0.495 1.668 0.943v0c0.183 0.286 0.197 0.628 0.04 1.026v0c-0.205 0.429-0.559 0.804-1.062 1.126v0c-0.529 0.339-1.005 0.495-1.426 0.468v0c-1.49-0.006-2.783-0.43-3.88-1.274-1.094-0.839-2.104-1.982-3.033-3.43v0c-0.962-1.502-1.563-3.159-1.802-4.972-0.234-1.816-0.095-3.586 0.416-5.308 0.512-1.723 1.365-3.192 2.56-4.407v0c0.681-0.733 1.416-1.353 2.205-1.859v0c1.237-0.793 2.462-1.082 3.673-0.867 1.214 0.205 2.66 0.863 4.34 1.974v0c1.519 1.039 2.666 2.163 3.442 3.373v0c0.557 0.87 0.965 1.797 1.223 2.783v0c0.831 3.034 0.561 4.99-0.811 5.87v0c-0.87 0.557-2.252 0.719-4.147 0.485v0c-0.9-0.132-1.794-0.397-2.682-0.796-0.885-0.393-1.71-0.802-2.477-1.225-0.769-0.414-1.297-0.697-1.584-0.848zM46.314 208.589c0.112-0.11 0.162-0.283 0.148-0.518-0.019-0.232-0.026-0.368-0.022-0.409v0c-0.399-0.742-1.066-1.336-1.999-1.782-0.93-0.44-1.907-0.675-2.932-0.705-1.025-0.029-1.864 0.166-2.518 0.584v0l-0.295 0.235c-0.091 0.096-0.133 0.322-0.127 0.676 0.003 0.349 0.045 0.535 0.129 0.558v0c2.597 0.973 4.62 1.662 6.068 2.067v0c0.257 0.056 0.596-0.051 1.018-0.321v0c0.265-0.17 0.441-0.298 0.53-0.385zM55.612 240.148c-0.113-0.286-0.266-0.527-0.461-0.723v0c-0.199-0.2-0.421-0.323-0.666-0.369-0.245-0.046-0.556-0.058-0.932-0.037v0c-0.526-0.001-1.021-0.057-1.483-0.168v0c-0.422-0.115-1.054-0.459-1.896-1.032v0c-0.349-0.269-0.622-0.503-0.822-0.704v0c-0.928-0.933-1.689-2.108-2.283-3.525-0.59-1.413-0.807-2.618-0.651-3.616v0c0.18-1.057 0.634-1.929 1.362-2.616v0c1.087-1.036 2.593-1.651 4.518-1.845v0c1.861-0.167 3.349-0.113 4.464 0.162 1.12 0.28 2.341 0.975 3.662 2.086v0c0.262 0.264 0.688 0.601 1.277 1.011 0.584 0.415 0.954 0.545 1.108 0.391v0c0.309-0.308 0.453-0.727 0.433-1.258-0.021-0.531-0.45-1.217-1.288-2.059v0c-0.312-0.314-0.796-0.76-1.453-1.338v0c-0.665-0.578-1.118-0.988-1.357-1.229v0c-0.751-0.755-1.169-1.421-1.254-1.998v0c-0.05-0.132 0.115-0.385 0.492-0.76v0c0.664-0.661 1.318-0.845 1.962-0.553v0c1.301 0.598 2.471 1.398 3.512 2.399v0c1.276 1.283 2.179 2.756 2.71 4.417 0.526 1.658 0.62 3.162 0.28 4.513v0c-0.335 1.347-1.167 2.835-2.497 4.465v0c-1.489 1.833-3.519 4.028-6.089 6.585v0c-0.71 0.706-1.221 1.015-1.534 0.928v0c-0.286-0.069-0.505-0.181-0.659-0.336v0c-0.199-0.2-0.319-0.443-0.359-0.729-0.045-0.291-0.057-0.644-0.038-1.062v0c0.047-0.445 0.027-0.778-0.058-1zM50.782 234.499c1.346 0.734 2.859 1.26 4.542 1.578v0c0.376 0.06 0.773 0.059 1.191-0.003 0.422-0.067 0.688-0.109 0.797-0.128v0c0.114-0.022 0.348-0.178 0.702-0.467 0.355-0.28 0.621-0.531 0.798-0.753v0c0.046-0.091 0.185-0.306 0.417-0.646 0.232-0.349 0.403-0.686 0.513-1.012v0c0.069-0.286 0.058-0.628-0.031-1.028-0.085-0.404-0.236-0.693-0.453-0.866v0c-0.444-0.401-1.053-0.699-1.829-0.897-0.775-0.206-1.614-0.277-2.517-0.211v0c-0.93 0.084-1.773 0.27-2.527 0.558-0.749 0.284-1.347 0.647-1.793 1.091v0c-0.551 0.638-0.784 1.2-0.699 1.686v0c0.04 0.268 0.171 0.513 0.393 0.736v0c0.176 0.177 0.342 0.298 0.496 0.362zM79.761 242.638c-0.605 0.953-0.955 1.605-1.049 1.957-0.09 0.346 0.049 0.635 0.417 0.869v0c0.341 0.217 0.933 0.482 1.775 0.796v0l0.91 0.578c1.506 0.956 2.219 1.873 2.141 2.751v0c0.101 0.14 0.146 0.363 0.135 0.667-0.011 0.305-0.015 0.515-0.013 0.631v0c-0.155 0.016-0.391 0.041-0.709 0.074-0.321 0.039-0.585 0.012-0.792-0.081v0c-0.689-0.255-1.708-0.663-3.055-1.222v0c-0.256-0.124-0.721-0.325-1.396-0.602v0c-1.065-0.418-1.89-0.166-2.475 0.754v0c-0.086 0.135-0.222 0.403-0.407 0.802v0c-0.585 1.627-1.113 3.045-1.582 4.252-0.466 1.201-0.862 2.201-1.186 2.998v0l-1.499 3.939c-0.536 1.431-1.023 2.49-1.46 3.178v0c-0.32 0.504-0.678 0.804-1.074 0.902-0.397 0.098-0.939-0.072-1.627-0.508v0c-0.58-0.368-0.924-0.789-1.035-1.262-0.101-0.475-0.018-1.072 0.249-1.792v0c0.538-1.361 1.285-3.441 2.241-6.239v0l2.912-7.386c0.921-1.558 0.656-2.799-0.795-3.72v0c-0.477-0.303-0.757-0.591-0.842-0.865v0c-0.076-0.239-0.125-0.486-0.144-0.742-0.023-0.25 0.015-0.454 0.114-0.611v0c0.086-0.135 0.268-0.236 0.546-0.303 0.28-0.058 0.507-0.05 0.682 0.022v0c1.036 0.475 1.846 0.618 2.431 0.427 0.582-0.186 1.154-0.692 1.718-1.52v0l1.683-2.489c0.729-1.088 1.49-2.197 2.284-3.327 0.79-1.125 1.536-2.095 2.237-2.912v0c0.593-0.695 1.28-1.046 2.06-1.052 0.78-0.007 1.659 0.301 2.64 0.924v0c0.422 0.268 0.742 0.49 0.957 0.665v0c0.523 0.408 0.994 1.068 1.411 1.98 0.423 0.914 0.492 1.654 0.209 2.219v0c-0.691 1.674-1.766 2.14-3.224 1.396v0c-0.782-0.755-1.377-0.985-1.785-0.689-0.408 0.296-0.823 0.716-1.246 1.261v0c-0.22 0.347-0.559 0.82-1.015 1.419v0c-0.478 0.586-0.926 1.206-1.342 1.861zM80.751 275.058c0.226 0.023 0.52 0.049 0.882 0.079 0.356 0.027 0.656 0.073 0.9 0.138v0c2.11 0.79 3.817 0.98 5.121 0.568 1.3-0.42 2.5-1.604 3.599-3.553v0c1.099-1.95 2.614-4.928 4.544-8.937v0l1.311-2.708c0.301-0.653 0.388-1.217 0.263-1.691-0.132-0.476-0.542-0.907-1.231-1.291v0c-1.493-0.809-2.598-1.966-3.315-3.471-0.721-1.513-0.974-3.154-0.759-4.923v0c0.058-0.551 0.134-1.196 0.227-1.935v0c0.173-1.412 0.316-2.469 0.429-3.171v0l0.033-0.08c0.073-0.178 0.212-0.35 0.418-0.516 0.202-0.174 0.38-0.278 0.533-0.313v0c0.594-0.132 1.194-0.075 1.8 0.172v0c0.814 0.332 1.424 0.909 1.83 1.733 0.406 0.824 0.483 1.672 0.231 2.546v0c-0.39 1.365-0.722 2.886-0.996 4.563v0c-0.104 0.664 0.046 1.079 0.45 1.243v0c0.321 0.131 0.661 0.086 1.021-0.135v0c1.144-0.649 2.101-1.34 2.871-2.073v0c0.941-0.898 1.89-1.153 2.847-0.763v0c0.261 0.107 0.443 0.198 0.544 0.273v0c1.387 0.898 1.736 2.117 1.045 3.658v0l-1.782 3.993c-1.575 3.543-2.797 6.17-3.667 7.88v0l-0.833 1.688c-1.144 2.298-2.062 4.076-2.754 5.332-0.698 1.254-1.493 2.475-2.386 3.663v0c-1.119 1.505-2.426 2.435-3.921 2.788-1.493 0.348-3.021 0.204-4.584-0.432v0c-1.248-0.508-2.394-1.259-3.437-2.253v0c-0.213-0.225-0.456-0.505-0.729-0.837-0.27-0.325-0.466-0.581-0.59-0.771v0zM133.698 244.462c0.032 0.025-0.358-0.319-1.171-1.033v0c-0.567-0.497-0.993-0.854-1.276-1.07v0c0.117-0.841 0.425-1.437 0.923-1.786 0.499-0.349 1.155-0.619 1.969-0.81v0c0.846-0.223 1.753-0.337 2.722-0.343v0c0.937-0.005 1.89 0.082 2.86 0.263v0c2.788 0.485 5.245 1.052 7.373 1.701 2.134 0.643 4.125 1.552 5.973 2.729v0c1.288 0.776 2.374 1.694 3.259 2.754v0c1.293 1.648 1.944 3.332 1.953 5.052v0c0.008 1.469-0.468 2.99-1.428 4.56v0c-3.663 5.873-7.439 10.507-11.327 13.905v0c-2.362 2.112-4.98 3.846-7.854 5.203v0c-1.062 0.539-2.171 0.811-3.326 0.817v0c-1.373 0.008-2.704-0.376-3.991-1.152v0c-0.47-0.312-0.831-0.631-1.083-0.956-0.252-0.326-0.379-0.707-0.382-1.143v0l0.046-0.424 0.313-2.447c0.356-2.877 0.687-5.019 0.994-6.425v0l0.225-1.041c0.92-4.067 1.608-7.347 2.063-9.839 0.454-2.486 0.783-5.045 0.986-7.676v0zM139.893 243.86c-0.379-0.03-0.879 0.005-1.501 0.104v0l-1.029 0.141c0.754 0.625 1.303 1.17 1.645 1.637 0.349 0.466 0.525 0.966 0.528 1.498v0c0.001 0.128-0.03 0.347-0.092 0.655v0c-0.394 1.818-0.93 4.057-1.608 6.718v0l-1.647 6.766c-0.734 3.071-1.375 5.921-1.925 8.548v0c-0.088 0.347-0.14 0.732-0.157 1.156-0.01 0.424-0.015 0.728-0.014 0.914v0c0.283 0.12 0.437 0.18 0.463 0.181v0l0.614-0.235c4.678-2.311 8.664-5.522 11.958-9.634v0c1.331-1.734 2.455-3.366 3.371-4.899 0.915-1.539 1.603-3.153 2.061-4.843v0c0.12-0.411 0.178-0.899 0.175-1.464v0c-0.005-0.969-0.251-1.84-0.737-2.614-0.492-0.78-1.159-1.373-2.002-1.779v0c-3.139-1.388-6.507-2.338-10.103-2.85zM174.009 262.617c-0.253 0.263-0.668 0.475-1.243 0.634v0c-0.21 0.058-0.468 0.113-0.773 0.165-0.312 0.053-0.568 0.124-0.77 0.213v0c0.517 0.929 1.313 1.577 2.386 1.945 1.074 0.368 2.171 0.397 3.291 0.087v0c0.965-0.267 1.762-0.718 2.392-1.351v0c0.962-0.879 1.739-1.823 2.331-2.834v0c0.416-0.734 0.88-1.173 1.393-1.315v0c0.328-0.091 0.658-0.003 0.992 0.265v0c0.349 0.323 0.603 0.772 0.763 1.347v0c0.168 0.606 0.177 1.106 0.026 1.5v0c-0.445 1.422-1.233 2.532-2.363 3.332-1.124 0.797-2.515 1.426-4.171 1.885v0c-1.719 0.476-3.48 0.561-5.283 0.255-1.804-0.312-3.454-0.967-4.949-1.965-1.495-0.997-2.647-2.246-3.455-3.746v0c-0.5-0.867-0.875-1.752-1.125-2.655v0c-0.392-1.416-0.307-2.671 0.255-3.766 0.554-1.099 1.61-2.287 3.167-3.564v0c1.441-1.145 2.853-1.909 4.239-2.293v0c0.996-0.276 2.002-0.392 3.019-0.348v0c3.144 0.101 4.934 0.937 5.369 2.508v0c0.276 0.996 0.023 2.364-0.76 4.106v0c-0.392 0.821-0.909 1.597-1.552 2.327-0.637 0.729-1.271 1.397-1.901 2.005-0.623 0.612-1.049 1.033-1.278 1.263zM173.592 253.724c-0.072-0.14-0.222-0.238-0.451-0.294-0.227-0.05-0.359-0.084-0.397-0.1v0c-0.827 0.163-1.592 0.624-2.293 1.384-0.695 0.759-1.208 1.623-1.539 2.594-0.33 0.97-0.392 1.83-0.185 2.578v0l0.138 0.351c0.065 0.115 0.268 0.222 0.608 0.321 0.334 0.101 0.524 0.114 0.571 0.042v0c1.696-2.194 2.951-3.924 3.766-5.188v0c0.13-0.229 0.128-0.585-0.006-1.068v0c-0.084-0.303-0.155-0.51-0.212-0.62zM198.618 258.858c0.242-0.949 0.396-1.681 0.462-2.197v0c0.101-0.575 0.322-0.945 0.664-1.108v0c0.336-0.161 0.69-0.068 1.063 0.28v0c0.941 0.936 1.566 1.729 1.877 2.376v0c0.133 0.278 0.22 0.496 0.26 0.655v0c0.154 0.617 0.024 1.163-0.388 1.638-0.412 0.475-0.985 0.854-1.719 1.134v0c-0.255 0.122-0.686 0.329-1.292 0.621-0.602 0.289-1.163 0.455-1.683 0.498-0.514 0.04-1.037-0.054-1.567-0.284v0c-1.154-0.521-1.928-1.192-2.322-2.014v0c-3.165-6.595-5.571-11.543-7.22-14.844v0l-3.616-7.424c-0.475-0.989-1.006-1.844-1.595-2.566v0c-0.098-0.131-0.195-0.294-0.289-0.491v0c-0.5-1.041-0.047-1.899 1.359-2.574v0c0.931-0.447 1.861-0.519 2.789-0.218 0.928 0.302 1.599 0.959 2.013 1.97v0c0.629 1.534 1.592 3.83 2.889 6.888v0l2.185 5.197c2.076 4.904 3.645 8.574 4.707 11.011v0c0.107 0.297 0.27 0.6 0.489 0.907 0.222 0.314 0.366 0.504 0.434 0.571v0zM202.722 233.465c0.05 0.19-0.028 0.485-0.232 0.884-0.205 0.399-0.359 0.745-0.464 1.038v0l-1.479 0.142c-1.449 0.141-2.48 0.173-3.094 0.097v0c-0.315-0.021-0.549-0.147-0.702-0.377v0c-0.107-0.16-0.141-0.338-0.101-0.534 0.039-0.196 0.176-0.372 0.411-0.528v0c1.014-0.676 2.425-1.239 4.23-1.688v0c0.173-0.077 0.432 0.005 0.777 0.245 0.351 0.237 0.569 0.477 0.654 0.721zM204.045 243.064c-0.144-0.39-0.255-0.671-0.331-0.843-0.08-0.178-0.181-0.358-0.301-0.539v0c-0.242-0.363-0.323-0.722-0.244-1.076 0.08-0.354 0.432-0.74 1.057-1.156v0c0.731-0.488 1.529-0.692 2.392-0.612 0.861 0.089 1.601 0.452 2.219 1.089v0c0.317 0.313 0.636 0.682 0.958 1.108 0.322 0.425 0.526 0.702 0.612 0.83v0l4.998 6.315c0.55 0.651 0.814 1.255 0.79 1.81-0.019 0.561-0.408 1.094-1.166 1.599v0c-0.646 0.431-1.32 0.618-2.021 0.561-0.699-0.066-1.293-0.349-1.78-0.849v0l-6.526-7.599zM227.75 224.554c1.494 1.688 2.563 3.024 3.207 4.006 0.645 0.983 1.101 2.076 1.37 3.279 0.264 1.198 0.355 2.791 0.273 4.777v0l1.799-0.491c1.113-0.288 1.913-0.516 2.402-0.685v0c1.471-0.509 2.819-0.645 4.044-0.409 1.221 0.231 2.255 0.786 3.101 1.664v0c1.042 1.081 1.713 2.498 2.011 4.25v0c0.32 1.866 0.172 3.627-0.443 5.281-0.616 1.663-1.566 3.137-2.852 4.42v0c-0.948 0.949-2.09 1.743-3.427 2.381v0c-0.627 0.302-1.43 0.416-2.409 0.344-0.988-0.073-1.934-0.301-2.839-0.686-0.914-0.384-1.6-0.833-2.059-1.344v0c-0.084-0.133-0.151-0.295-0.202-0.487-0.051-0.192-0.044-0.341 0.022-0.449v0c0.001-0.045 0.036-0.101 0.105-0.168v0c0.065-0.062 0.188-0.124 0.371-0.184 0.178-0.065 0.301-0.108 0.37-0.129v0c0.151-0.065 0.327-0.039 0.53 0.077v0c0.987 0.395 1.865 0.608 2.636 0.641 0.775 0.037 1.455-0.271 2.038-0.923v0c2.168-2.393 3.138-4.562 2.911-6.508v0c-0.052-0.645-0.206-1.29-0.462-1.935-0.251-0.649-0.573-1.177-0.965-1.583v0c-0.566-0.587-1.118-0.878-1.658-0.875-0.545-0.001-1.164 0.226-1.857 0.681v0c-0.735 0.495-1.489 0.919-2.263 1.272-0.769 0.349-1.756 0.712-2.961 1.09v0c-0.598 0.184-1.051 0.273-1.359 0.267-0.308-0.006-0.572-0.122-0.79-0.348v0c-0.218-0.226-0.636-0.928-1.255-2.106v0c-0.087-0.183-0.513-0.209-1.278-0.078-0.765 0.131-1.414 0.258-1.947 0.38v0c-1.91 0.451-3.646-0.135-5.209-1.756v0c-0.432-0.448-0.812-0.907-1.139-1.376v0c-1.98-2.868-2.467-5.786-1.46-8.753v0c0.231-0.704 0.605-1.305 1.122-1.804v0c0.383-0.37 0.832-0.695 1.346-0.976 0.518-0.276 0.82-0.434 0.907-0.473v0l0.907-0.487c0.422-0.237 0.79-0.507 1.104-0.811v0c0.43-0.414 0.742-0.867 0.937-1.357 0.2-0.496 0.317-1.086 0.353-1.771v0c0.103-0.928 0.446-1.673 1.027-2.234v0c0.43-0.414 0.927-0.666 1.491-0.755 0.569-0.085 1.148 0.021 1.737 0.317v0c0.22 0.136 0.385 0.261 0.497 0.377v0c0.192 0.199 0.311 0.387 0.357 0.565v0c0.015 0.155 0.104 0.63 0.267 1.427v0c0.128 0.447 0.221 0.839 0.278 1.176 0.062 0.332 0.065 0.761 0.01 1.287v0c-0.092 0.311-0.224 0.604-0.397 0.878-0.173 0.274-0.297 0.491-0.373 0.653-0.085 0.162-0.06 0.312 0.074 0.451zM220.166 230.888c0.082 1.481 0.523 2.637 1.325 3.469v0c0.566 0.587 1.289 0.968 2.171 1.142 0.882 0.166 1.891 0.071 3.028-0.285v0c0.53-1.161 0.629-2.385 0.298-3.67-0.33-1.295-0.972-2.437-1.924-3.425v0c-0.588-0.61-1.21-1.075-1.867-1.396-0.657-0.321-1.387-0.357-2.19-0.108v0c-0.648 1.409-0.928 2.833-0.841 4.273zM226.977 204.036c2.547 1.652 4.674 2.96 6.383 3.924 1.703 0.961 3.614 1.825 5.732 2.591v0c0.337-1.355 0.807-2.487 1.41-3.396v0c1.022-1.54 2.362-2.568 4.022-3.084 1.656-0.511 3.29-0.512 4.901-0.005v0c1.198 0.341 2.632 1.065 4.3 2.172v0l3.02 2.063c0.182 0.121 0.321 0.363 0.418 0.728 0.097 0.365 0.103 0.669 0.018 0.913v0c-0.026 0.098-0.091 0.224-0.194 0.379v0c-0.397 0.599-1.107 1.029-2.127 1.291-1.021 0.262-1.826 0.216-2.417-0.136v0l-2.076-1.275c-0.47-0.312-1.167-0.736-2.091-1.271v0c-0.944-0.55-1.663-0.877-2.156-0.981v0c-0.547-0.139-1.016-0.17-1.407-0.09-0.391 0.079-0.683 0.263-0.874 0.552v0c-0.138 0.208-0.198 0.496-0.18 0.862 0.019 0.367 0.125 0.745 0.32 1.137v0c0.495 1.122 1.71 2.964 3.645 5.526v0c0.726 0.89 0.846 1.701 0.36 2.434v0c-0.05 0.075-0.188 0.226-0.416 0.452v0c-0.156 0.12-0.438 0.364-0.844 0.733-0.412 0.366-0.831 0.585-1.256 0.657-0.429 0.077-0.889-0.047-1.381-0.374v0c-4.929-3.271-9.207-5.679-12.834-7.223v0c-1.803-0.788-3.76-1.883-5.872-3.285v0l-2.622-1.74-1.363-0.905c-0.369-0.245-0.552-0.648-0.55-1.208-0.003-0.564 0.161-1.095 0.49-1.592v0c0.277-0.417 0.6-0.707 0.97-0.87v0c0.663-0.315 1.3-0.427 1.911-0.338 0.616 0.093 1.277 0.374 1.982 0.842v0zM243.162 191.083c-0.312 0.115-0.614 0.161-0.907 0.139-0.291-0.029-0.682-0.102-1.173-0.22v0c-0.511-0.497-0.633-1.096-0.366-1.798v0c0.195-0.331 0.319-0.568 0.375-0.712v0c0.224-0.588 0.186-1.021-0.113-1.3-0.293-0.276-0.673-0.504-1.141-0.681-0.468-0.178-0.834-0.317-1.097-0.418v0l-2.584-1.139c-0.57-0.252-1.279-0.563-2.127-0.934-0.845-0.377-1.827-0.809-2.946-1.297v0c-0.6-0.263-0.995-0.588-1.183-0.976-0.186-0.394-0.185-0.839 0.004-1.337v0c0.132-0.348 0.268-0.612 0.405-0.793v0c0.721-1.099 1.407-1.757 2.061-1.976 0.655-0.224 1.505-0.22 2.549 0.013v0c0.215 0.048 0.63 0.24 1.243 0.577v0l6.534 3.395c0.165 0.09 0.362 0.213 0.591 0.369 0.223 0.154 0.394 0.253 0.514 0.299v0c0.264 0.1 0.494 0.02 0.69-0.242 0.202-0.26 0.437-0.788 0.707-1.585v0c0.218-1.455 0.418-2.549 0.601-3.283v0c0.027-0.161 0.101-0.401 0.222-0.718v0c0.135-0.354 0.266-0.572 0.394-0.654v0c0.106-0.097 0.31-0.129 0.613-0.096 0.309 0.035 0.638 0.119 0.985 0.252v0c0.324 0.123 0.604 0.271 0.841 0.444 0.236 0.172 0.344 0.323 0.322 0.452v0c-0.065 0.875-0.23 1.883-0.493 3.025v0c-0.255 1.372-0.412 2.397-0.471 3.076v0c-0.033 0.358 0.062 0.765 0.286 1.221 0.233 0.453 0.487 0.749 0.764 0.888v0c1.41 0.606 2.856 1.208 4.338 1.807v0c1.128 0.464 2.284 0.853 3.469 1.167v0c0.997 0.284 1.762 0.359 2.294 0.225 0.538-0.132 0.917-0.488 1.139-1.07v0c0.178-0.468 0.276-1.203 0.294-2.206v0c-0.032-0.548 0.019-0.995 0.151-1.343v0c0.212-0.558 0.672-0.836 1.379-0.834v0c0.236-0.006 0.456 0.029 0.659 0.107v0c0.378 0.144 0.631 0.398 0.76 0.763 0.129 0.365 0.194 0.815 0.196 1.352v0c-0.016 0.997-0.182 1.956-0.499 2.879v0c-0.466 1.223-1.205 2.263-2.219 3.12-1.011 0.851-2.176 1.386-3.495 1.604-1.319 0.219-2.663 0.016-4.032-0.608v0c-0.546-0.242-1.419-0.592-2.618-1.049v0c-1.901-0.724-3.856-1.386-5.866-1.987v0c-0.185-0.036-0.351 0.021-0.497 0.171-0.138 0.146-0.327 0.408-0.567 0.783v0c-0.376 0.626-0.704 1.002-0.985 1.128z" fill="#ffffff" data-fill-palette-color="primary"></path><path d="M31.62 105.399C31.724 104.649 31.916 103.085 32.195 100.708V100.708L32.58 97.486C33.035 97.26 33.434 97.073 33.775 96.923 34.116 96.774 34.378 96.731 34.561 96.792V96.792C34.767 96.862 34.941 97.039 35.082 97.323 35.22 97.6 35.417 98.13 35.674 98.914V98.914C35.702 99.011 35.765 99.127 35.862 99.262 35.965 99.398 36.011 99.522 36 99.633V99.633L35.918 100.784C35.88 101.759 35.817 102.619 35.73 103.361 35.636 104.101 35.47 104.824 35.233 105.53V105.53C34.389 108.035 32.957 109.834 30.936 110.927V110.927C30.18 111.343 29.467 111.621 28.797 111.761 28.129 111.895 27.466 111.851 26.81 111.63V111.63C26.524 111.533 26.321 111.451 26.202 111.384V111.384C23.759 110.094 21.722 108.883 20.093 107.752V107.752C18.295 106.537 15.26 104.411 10.988 101.374V101.374C9.976 100.68 8.458 99.617 6.436 98.184V98.184C5.901 97.801 5.571 97.406 5.444 96.997 5.318 96.589 5.387 96.081 5.653 95.473V95.473C5.696 95.345 5.749 95.228 5.812 95.121 5.878 95.007 5.932 94.887 5.975 94.759V94.759C6.656 93.18 7.713 92.633 9.149 93.116V93.116C9.513 93.239 9.875 93.422 10.233 93.665V93.665C10.997 94.152 11.988 94.919 13.206 95.966V95.966C17.874 99.895 22.508 103.274 27.107 106.103V106.103C27.68 106.472 28.307 106.772 28.989 107.001V107.001C30.266 107.431 31.093 107.084 31.472 105.959V105.959C31.55 105.728 31.6 105.541 31.62 105.399ZM39.497 79.39C39.492 79.712 39.352 80.094 39.076 80.534V80.534C38.974 80.698 38.839 80.889 38.671 81.11 38.498 81.327 38.374 81.525 38.299 81.705V81.705C39.182 82 40.082 81.946 40.999 81.544 41.917 81.141 42.646 80.507 43.187 79.642V79.642C43.653 78.897 43.905 78.131 43.942 77.345V77.345C44.042 76.204 43.985 75.128 43.77 74.115V74.115C43.603 73.39 43.643 72.829 43.892 72.432V72.432C44.051 72.176 44.322 72.035 44.702 72.008V72.008C45.117 72.01 45.547 72.15 45.993 72.429V72.429C46.461 72.722 46.765 73.04 46.905 73.385V73.385C47.46 74.58 47.609 75.77 47.352 76.956 47.097 78.151 46.568 79.391 45.765 80.675V80.675C44.932 82.008 43.835 83.108 42.475 83.976 41.118 84.853 39.656 85.411 38.091 85.651 36.526 85.891 35.039 85.763 33.631 85.269V85.269C32.788 85.007 32.016 84.656 31.314 84.218V84.218C30.215 83.531 29.519 82.664 29.227 81.619 28.94 80.577 28.922 79.177 29.173 77.42V77.42C29.424 75.821 29.886 74.482 30.559 73.405V73.405C31.039 72.638 31.623 71.963 32.313 71.38V71.38C34.416 69.577 36.077 69.057 37.296 69.819V69.819C38.063 70.298 38.711 71.339 39.238 72.94V72.94C39.48 73.704 39.608 74.514 39.625 75.372 39.641 76.23 39.628 77.043 39.587 77.811 39.545 78.58 39.515 79.106 39.497 79.39ZM33.94 73.861C33.803 73.814 33.647 73.841 33.47 73.942 33.296 74.038 33.19 74.093 33.151 74.106V74.106C32.708 74.707 32.486 75.461 32.486 76.369 32.486 77.277 32.665 78.146 33.024 78.976 33.387 79.8 33.862 80.396 34.45 80.763V80.763L34.747 80.904C34.857 80.935 35.05 80.886 35.328 80.756 35.609 80.622 35.74 80.515 35.722 80.435V80.435C35.524 78.003 35.312 76.134 35.085 74.827V74.827C35.032 74.597 34.82 74.366 34.45 74.135V74.135C34.216 73.989 34.046 73.898 33.94 73.861ZM62.624 58.09C62.371 58.194 62.158 58.335 61.983 58.514V58.514C61.813 58.689 61.709 58.883 61.671 59.097 61.633 59.311 61.625 59.585 61.648 59.921V59.921C61.659 60.388 61.617 60.826 61.522 61.236V61.236C61.432 61.605 61.138 62.165 60.639 62.915V62.915C60.408 63.227 60.204 63.472 60.03 63.652V63.652C59.224 64.479 58.203 65.164 56.967 65.707 55.726 66.255 54.667 66.464 53.79 66.335V66.335C52.853 66.193 52.077 65.804 51.46 65.168V65.168C50.531 64.227 49.969 62.91 49.774 61.215V61.215C49.594 59.579 49.619 58.27 49.851 57.287 50.079 56.299 50.675 55.214 51.639 54.03V54.03C51.867 53.796 52.16 53.417 52.516 52.895 52.863 52.373 52.967 52.045 52.829 51.911V51.911C52.553 51.642 52.184 51.52 51.722 51.545 51.25 51.569 50.65 51.956 49.92 52.705V52.705C49.651 52.981 49.269 53.415 48.773 54.007V54.007C48.273 54.603 47.918 55.01 47.707 55.226V55.226C47.054 55.897 46.473 56.272 45.966 56.351V56.351C45.849 56.398 45.622 56.258 45.287 55.932V55.932C44.694 55.354 44.523 54.78 44.774 54.21V54.21C45.28 53.055 45.967 52.013 46.835 51.085V51.085C47.95 49.941 49.232 49.125 50.683 48.638 52.142 48.152 53.468 48.046 54.66 48.32V48.32C55.853 48.595 57.178 49.308 58.636 50.459V50.459C60.269 51.744 62.23 53.501 64.519 55.731V55.731C65.149 56.344 65.427 56.79 65.354 57.067V57.067C65.298 57.318 65.203 57.512 65.069 57.65V57.65C64.894 57.829 64.682 57.941 64.433 57.985 64.18 58.024 63.867 58.038 63.494 58.025V58.025C63.108 57.989 62.818 58.011 62.624 58.091ZM57.706 62.423C58.335 61.226 58.775 59.886 59.028 58.404V58.404C59.082 58.072 59.078 57.722 59.014 57.356 58.954 56.984 58.913 56.751 58.889 56.656V56.656C58.869 56.557 58.73 56.354 58.472 56.049 58.214 55.735 57.989 55.502 57.796 55.35V55.35C57.714 55.315 57.519 55.197 57.213 54.997 56.911 54.793 56.611 54.645 56.315 54.553V54.553C56.065 54.498 55.766 54.511 55.417 54.592 55.064 54.679 54.812 54.818 54.661 55.011V55.011C54.312 55.406 54.056 55.945 53.892 56.627 53.725 57.315 53.675 58.055 53.745 58.848V58.848C53.833 59.668 54.008 60.408 54.271 61.067 54.534 61.726 54.863 62.248 55.259 62.633V62.633C55.828 63.115 56.327 63.315 56.757 63.232V63.232C56.988 63.188 57.2 63.068 57.392 62.87V62.87C57.549 62.709 57.654 62.56 57.706 62.423ZM72.515 37.049C73.054 37.878 73.446 38.392 73.691 38.593 73.939 38.798 74.225 38.796 74.548 38.586V38.586C74.849 38.39 75.277 38.013 75.831 37.453V37.453L76.63 36.933C77.948 36.076 78.945 35.838 79.62 36.217V36.217C79.765 36.192 79.959 36.238 80.203 36.355 80.446 36.48 80.614 36.562 80.708 36.601V36.601C80.662 36.73 80.592 36.929 80.498 37.196 80.413 37.466 80.299 37.666 80.155 37.798V37.798C79.696 38.258 78.998 38.926 78.061 39.803V39.803C77.865 39.961 77.53 40.259 77.057 40.697V40.697C76.334 41.397 76.235 42.151 76.759 42.958V42.958C76.836 43.076 77.001 43.282 77.254 43.577V43.577C78.346 44.643 79.287 45.585 80.079 46.402 80.87 47.219 81.528 47.901 82.052 48.448V48.448L84.657 51.094C85.609 52.051 86.279 52.829 86.668 53.426V53.426C86.954 53.867 87.065 54.266 86.998 54.623 86.937 54.976 86.606 55.349 86.003 55.741V55.741C85.498 56.07 85.032 56.189 84.606 56.099 84.188 56.01 83.743 55.726 83.27 55.245V55.245C82.367 54.317 80.972 52.954 79.085 51.158V51.158L74.23 46.13C73.316 44.818 72.221 44.577 70.946 45.406V45.406C70.532 45.676 70.201 45.796 69.952 45.766V45.766C69.735 45.739 69.521 45.686 69.31 45.609 69.094 45.536 68.942 45.432 68.855 45.297V45.297C68.778 45.179 68.766 44.995 68.818 44.747 68.871 44.498 68.96 44.318 69.086 44.205V44.205C69.841 43.554 70.25 42.958 70.313 42.42 70.38 41.887 70.182 41.242 69.721 40.486V40.486L68.35 38.22C67.742 37.237 67.132 36.222 66.519 35.174 65.901 34.129 65.395 33.176 65.003 32.314V32.314C64.661 31.587 64.63 30.91 64.911 30.284 65.192 29.657 65.761 29.065 66.616 28.509V28.509C66.987 28.268 67.282 28.091 67.5 27.98V27.98C68.021 27.71 68.725 27.574 69.611 27.571 70.498 27.569 71.113 27.785 71.457 28.22V28.22C72.542 29.382 72.523 30.412 71.4 31.31V31.31C70.51 31.66 70.107 32.052 70.191 32.487 70.278 32.928 70.465 33.415 70.751 33.949V33.949C70.947 34.25 71.201 34.693 71.513 35.279V35.279C71.803 35.878 72.137 36.469 72.515 37.049ZM96.52 51.619C96.676 51.492 96.877 51.325 97.125 51.119 97.367 50.914 97.584 50.758 97.775 50.651V50.651C99.593 49.842 100.777 48.903 101.328 47.835 101.886 46.769 101.907 45.285 101.388 43.381V43.381C100.87 41.478 99.974 38.671 98.701 34.962V34.962L97.842 32.463C97.628 31.864 97.334 31.455 96.958 31.235 96.582 31.016 96.063 31.002 95.399 31.194V31.194C93.96 31.61 92.546 31.567 91.158 31.066 89.777 30.569 88.604 29.697 87.636 28.452V28.452C87.332 28.071 86.983 27.622 86.588 27.105V27.105C85.815 26.112 85.25 25.36 84.892 24.849V24.849L84.863 24.778C84.799 24.624 84.778 24.431 84.8 24.199 84.82 23.962 84.864 23.784 84.933 23.665V23.665C85.226 23.217 85.64 22.882 86.173 22.661V22.661C86.89 22.364 87.631 22.349 88.394 22.616 89.164 22.88 89.737 23.365 90.112 24.071V24.071C90.719 25.167 91.453 26.325 92.313 27.545V27.545C92.665 28.024 93.018 28.19 93.374 28.043V28.043C93.652 27.927 93.838 27.687 93.93 27.323V27.323C94.239 26.208 94.408 25.183 94.437 24.248V24.248C94.469 23.102 94.906 22.355 95.748 22.006V22.006C95.979 21.91 96.15 21.853 96.26 21.835V21.835C97.688 21.542 98.663 22.093 99.185 23.488V23.488L100.544 27.092C101.75 30.287 102.61 32.689 103.123 34.296V34.296L103.642 35.873C104.353 38.023 104.879 39.705 105.222 40.917 105.561 42.138 105.822 43.395 106.004 44.688V44.688C106.23 46.323 105.988 47.716 105.276 48.865 104.557 50.011 103.509 50.869 102.134 51.439V51.439C101.037 51.893 99.851 52.131 98.575 52.153V52.153C98.308 52.146 97.986 52.123 97.609 52.085 97.238 52.044 96.954 52.005 96.759 51.969V51.969ZM134.703 4.414C134.728 4.439 134.387 4.133 133.677 3.494V3.494C133.179 3.049 132.809 2.73 132.566 2.536V2.536C132.678 1.792 132.957 1.271 133.401 0.971 133.839 0.672 134.418 0.44 135.137 0.277V0.277C135.882 0.088 136.682-0.004 137.535 0V0C138.363 0.004 139.203 0.092 140.056 0.263V0.263C142.504 0.718 144.664 1.238 146.535 1.825 148.406 2.412 150.154 3.232 151.778 4.286V4.286C152.904 4.978 153.85 5.795 154.615 6.735V6.735C155.737 8.204 156.295 9.695 156.287 11.209V11.209C156.281 12.506 155.847 13.841 154.987 15.217V15.217C151.709 20.353 148.339 24.401 144.879 27.362V27.362C142.778 29.193 140.457 30.696 137.917 31.87V31.87C136.978 32.334 135.998 32.564 134.978 32.559V32.559C133.765 32.553 132.596 32.204 131.47 31.511V31.511C131.054 31.234 130.738 30.95 130.521 30.66 130.305 30.37 130.197 30.033 130.199 29.648V29.648L130.239 29.272 130.539 27.128C130.885 24.588 131.199 22.7 131.481 21.463V21.463L131.688 20.559C132.533 16.977 133.167 14.092 133.588 11.906 134.016 9.72 134.332 7.469 134.536 5.154V5.154ZM140.163 3.94C139.829 3.913 139.386 3.939 138.834 4.02V4.02L137.929 4.141C138.587 4.689 139.066 5.173 139.365 5.592 139.665 6.004 139.813 6.444 139.811 6.912V6.912C139.81 7.022 139.784 7.214 139.731 7.49V7.49C139.364 9.086 138.873 11.053 138.258 13.392V13.392L136.737 19.343C136.063 22.041 135.473 24.543 134.968 26.851V26.851C134.883 27.159 134.833 27.498 134.818 27.87 134.797 28.243 134.786 28.509 134.785 28.669V28.669C135.035 28.786 135.173 28.844 135.198 28.844V28.844L135.738 28.635C139.881 26.647 143.424 23.854 146.367 20.256V20.256C147.555 18.748 148.56 17.319 149.382 15.969 150.203 14.625 150.823 13.21 151.241 11.724V11.724C151.352 11.365 151.409 10.938 151.411 10.444V10.444C151.415 9.591 151.207 8.82 150.787 8.131 150.361 7.436 149.776 6.907 149.034 6.544V6.544C146.287 5.292 143.33 4.424 140.163 3.94ZM172.465 28.12C172.155 28.209 171.749 28.186 171.248 28.05V28.05C171.062 28 170.839 27.926 170.579 27.83 170.321 27.726 170.095 27.665 169.901 27.646V27.646C169.876 28.576 170.188 29.422 170.84 30.183 171.492 30.945 172.31 31.458 173.295 31.725V31.725C174.143 31.954 174.949 31.973 175.712 31.781V31.781C176.833 31.545 177.846 31.178 178.753 30.679V30.679C179.398 30.308 179.947 30.184 180.399 30.306V30.306C180.69 30.385 180.904 30.603 181.04 30.958V30.958C181.158 31.356 181.149 31.809 181.012 32.317V32.317C180.867 32.849 180.651 33.233 180.361 33.467V33.467C179.379 34.345 178.284 34.833 177.074 34.931 175.856 35.033 174.516 34.887 173.055 34.492V34.492C171.537 34.081 170.166 33.351 168.941 32.302 167.708 31.257 166.749 30.021 166.066 28.593 165.382 27.165 165.072 25.705 165.136 24.213V24.213C165.143 23.331 165.254 22.49 165.47 21.691V21.691C165.808 20.44 166.435 19.523 167.351 18.94 168.265 18.362 169.599 17.939 171.354 17.669V17.669C172.957 17.445 174.371 17.498 175.598 17.83V17.83C176.471 18.066 177.287 18.43 178.045 18.921V18.921C180.38 20.41 181.361 21.849 180.985 23.236V23.236C180.749 24.11 179.941 25.031 178.562 26.001V26.001C177.901 26.453 177.163 26.812 176.347 27.076 175.531 27.341 174.749 27.565 174.001 27.748 173.254 27.931 172.742 28.056 172.465 28.12ZM176.142 21.198C176.148 21.054 176.077 20.911 175.929 20.771 175.787 20.633 175.703 20.548 175.679 20.515V20.515C174.976 20.264 174.19 20.271 173.321 20.535 172.452 20.798 171.672 21.222 170.982 21.806 170.299 22.393 169.866 23.02 169.685 23.689V23.689L169.637 24.015C169.64 24.129 169.743 24.3 169.947 24.528 170.158 24.757 170.298 24.852 170.369 24.811V24.811C172.638 23.916 174.366 23.17 175.551 22.574V22.574C175.755 22.456 175.915 22.187 176.029 21.766V21.766C176.101 21.499 176.139 21.31 176.142 21.198ZM192.751 40.532C193.529 40.171 194.113 39.871 194.505 39.632V39.632C194.954 39.392 195.33 39.344 195.631 39.488V39.488C195.926 39.629 196.06 39.921 196.033 40.363V40.363C195.904 41.525 195.702 42.392 195.428 42.965V42.965C195.309 43.214 195.209 43.394 195.128 43.504V43.504C194.791 43.955 194.344 44.168 193.787 44.143 193.233 44.127 192.658 43.945 192.064 43.596V43.596C191.838 43.488 191.459 43.307 190.927 43.052 190.388 42.794 189.964 42.499 189.654 42.166 189.336 41.835 189.112 41.426 188.983 40.937V40.937C188.706 39.852 188.739 38.95 189.082 38.232V38.232C191.866 32.415 193.934 28.027 195.286 25.067V25.067L198.392 18.487C198.808 17.619 199.1 16.784 199.27 15.984V15.984C199.308 15.845 199.368 15.689 199.451 15.515V15.515C199.892 14.595 200.731 14.431 201.97 15.024V15.024C202.792 15.417 203.356 16.015 203.663 16.816 203.961 17.62 203.879 18.445 203.417 19.291V19.291C202.71 20.575 201.663 22.503 200.276 25.076V25.076L197.919 29.443C195.695 33.571 194.039 36.674 192.953 38.75V38.75C192.811 38.988 192.694 39.27 192.602 39.596 192.507 39.913 192.456 40.117 192.449 40.206V40.206ZM216.948 34.887C216.812 34.997 216.547 35.033 216.152 34.998 215.757 34.963 215.424 34.95 215.154 34.96V34.96L214.544 33.802C213.948 32.669 213.579 31.836 213.436 31.305V31.305C213.349 31.044 213.376 30.811 213.516 30.603V30.603C213.606 30.471 213.738 30.386 213.911 30.348 214.085 30.319 214.274 30.373 214.475 30.51V30.51C215.367 31.115 216.295 32.079 217.26 33.4V33.4C217.383 33.515 217.406 33.756 217.328 34.122 217.249 34.479 217.122 34.734 216.948 34.887ZM209.555 39.164C209.826 38.913 210.019 38.726 210.134 38.603 210.249 38.479 210.36 38.338 210.469 38.178V38.178C210.685 37.86 210.952 37.677 211.271 37.63 211.589 37.574 212.021 37.731 212.567 38.102V38.102C213.21 38.538 213.64 39.121 213.858 39.851 214.073 40.586 214.022 41.312 213.707 42.028V42.028C213.559 42.393 213.365 42.777 213.123 43.179 212.881 43.581 212.723 43.838 212.647 43.949V43.949L209.152 50.127C208.803 50.79 208.397 51.204 207.935 51.371 207.472 51.538 206.912 51.399 206.254 50.952V50.952C205.68 50.563 205.303 50.073 205.121 49.485 204.939 48.896 204.972 48.321 205.22 47.761V47.761L209.253 39.901ZM232.146 60.194C230.692 61.545 229.538 62.515 228.683 63.105 227.829 63.695 226.876 64.12 225.825 64.379 224.774 64.639 223.372 64.751 221.621 64.715V64.715L222.092 66.291C222.374 67.265 222.593 67.965 222.749 68.391V68.391C223.219 69.677 223.366 70.86 223.19 71.941 223.01 73.027 222.543 73.95 221.789 74.712V74.712C220.859 75.651 219.626 76.273 218.09 76.576V76.576C216.454 76.898 214.899 76.804 213.426 76.294 211.953 75.785 210.636 74.977 209.473 73.872V73.872C208.615 73.06 207.891 72.072 207.3 70.909V70.909C207.024 70.357 206.907 69.65 206.948 68.788 206.993 67.921 207.175 67.08 207.493 66.266 207.811 65.462 208.193 64.852 208.64 64.436V64.436C208.753 64.359 208.893 64.294 209.061 64.244 209.229 64.193 209.36 64.197 209.456 64.255V64.255C209.492 64.255 209.54 64.284 209.599 64.343V64.343C209.659 64.402 209.718 64.51 209.778 64.669 209.838 64.818 209.877 64.924 209.895 64.988V64.988C209.96 65.124 209.942 65.278 209.843 65.451V65.451C209.517 66.328 209.344 67.11 209.325 67.795 209.31 68.476 209.599 69.068 210.192 69.573V69.573C212.343 71.431 214.274 72.24 215.983 72V72C216.55 71.938 217.114 71.787 217.675 71.548 218.241 71.314 218.7 71.019 219.052 70.663V70.663C219.553 70.157 219.798 69.663 219.786 69.182 219.775 68.711 219.563 68.172 219.151 67.566V67.566C218.699 66.929 218.31 66.273 217.984 65.598 217.663 64.929 217.323 64.068 216.963 63.018V63.018C216.783 62.497 216.695 62.098 216.698 61.821 216.697 61.549 216.793 61.315 216.987 61.119V61.119C217.177 60.927 217.787 60.543 218.819 59.965V59.965C218.972 59.892 218.984 59.52 218.854 58.849 218.727 58.174 218.602 57.603 218.477 57.136V57.136C218.042 55.459 218.521 53.917 219.916 52.507V52.507C220.304 52.115 220.701 51.772 221.108 51.48V51.48C223.59 49.675 226.15 49.185 228.791 50.01V50.01C229.414 50.202 229.951 50.521 230.402 50.968V50.968C230.735 51.297 231.03 51.684 231.286 52.127 231.538 52.575 231.685 52.837 231.726 52.914V52.914L232.166 53.701C232.386 54.072 232.632 54.393 232.906 54.664V54.664C233.275 55.029 233.681 55.295 234.122 55.461 234.563 55.626 235.085 55.714 235.688 55.724V55.724C236.506 55.802 237.17 56.093 237.68 56.599V56.599C238.05 56.964 238.281 57.396 238.375 57.895 238.464 58.389 238.382 58.9 238.131 59.428V59.428C238.019 59.623 237.913 59.771 237.813 59.872V59.872C237.642 60.045 237.477 60.152 237.318 60.194V60.194C237.182 60.213 236.763 60.304 236.061 60.466V60.466C235.676 60.582 235.336 60.67 235.041 60.73 234.747 60.791 234.368 60.804 233.905 60.77V60.77C233.632 60.69 233.373 60.578 233.127 60.434 232.881 60.29 232.686 60.182 232.54 60.111 232.395 60.048 232.263 60.076 232.146 60.194ZM226.415 53.643C225.108 53.75 224.096 54.166 223.379 54.891V54.891C222.873 55.402 222.557 56.046 222.429 56.822 222.293 57.599 222.393 58.483 222.729 59.475V59.475C223.766 59.923 224.849 59.988 225.977 59.669 227.105 59.35 228.095 58.759 228.948 57.897V57.897C229.472 57.368 229.868 56.813 230.137 56.23 230.407 55.639 230.421 54.995 230.182 54.297V54.297C228.936 53.759 227.68 53.541 226.415 53.643ZM253.531 68.973C251.302 70.442 249.497 71.697 248.116 72.741 246.736 73.775 245.362 75.013 243.993 76.453V76.453C244.97 77.198 245.721 77.977 246.246 78.792V78.792C247.126 80.156 247.48 81.599 247.309 83.122 247.14 84.636 246.568 85.956 245.591 87.082V87.082C244.89 87.924 243.797 88.823 242.315 89.779V89.779L239.584 91.495C239.422 91.599 239.177 91.627 238.849 91.58 238.517 91.527 238.27 91.422 238.108 91.267V91.267C238.042 91.211 237.963 91.112 237.873 90.972V90.972C237.528 90.438 237.429 89.716 237.574 88.805 237.725 87.891 238.046 87.257 238.535 86.903V86.903L240.305 85.669C240.72 85.402 241.306 84.99 242.062 84.433V84.433C242.843 83.869 243.364 83.403 243.624 83.037V83.037C243.927 82.643 244.115 82.277 244.188 81.94 244.262 81.594 244.218 81.294 244.054 81.041V81.041C243.933 80.852 243.72 80.699 243.415 80.583 243.114 80.471 242.772 80.425 242.387 80.444V80.444C241.31 80.444 239.393 80.775 236.637 81.438V81.438C235.665 81.707 234.97 81.517 234.553 80.87V80.87C234.507 80.8 234.432 80.635 234.325 80.375V80.375C234.283 80.204 234.187 79.888 234.035 79.429 233.884 78.969 233.854 78.556 233.947 78.191 234.036 77.82 234.302 77.493 234.744 77.207V77.207C239.123 74.383 242.574 71.779 245.099 69.395V69.395C246.37 68.217 247.943 67.022 249.82 65.812V65.812L252.149 64.309 253.363 63.527C253.686 63.318 254.075 63.312 254.53 63.507 254.988 63.708 255.357 64.027 255.639 64.464V64.464C255.879 64.836 256 65.201 256.002 65.559V65.559C256.026 66.2 255.89 66.753 255.595 67.218 255.308 67.686 254.852 68.121 254.227 68.525V68.525ZM259.364 93.632C259.503 93.376 259.677 93.172 259.888 93.02 260.093 92.87 260.394 92.694 260.792 92.494V92.494C261.42 92.53 261.848 92.859 262.076 93.479V93.479C262.14 93.804 262.196 94.033 262.245 94.165V94.165C262.435 94.684 262.707 94.95 263.06 94.964 263.42 94.975 263.808 94.905 264.223 94.753 264.633 94.603 264.955 94.485 265.19 94.399V94.399L267.565 93.662C268.094 93.502 268.745 93.301 269.517 93.059 270.298 92.821 271.2 92.542 272.224 92.221V92.221C272.781 92.045 273.232 92.033 273.575 92.188 273.925 92.34 274.18 92.636 274.341 93.076V93.076C274.456 93.389 274.522 93.645 274.54 93.843V93.843C274.694 94.99 274.617 95.824 274.31 96.347 274.002 96.87 273.432 97.355 272.599 97.804V97.804C272.429 97.9 272.046 98.013 271.451 98.142V98.142L265.138 99.656C264.973 99.689 264.769 99.722 264.529 99.756 264.292 99.781 264.123 99.812 264.02 99.85V99.85C263.785 99.936 263.676 100.123 263.693 100.411 263.709 100.699 263.861 101.186 264.147 101.874V101.874C264.841 102.966 265.337 103.809 265.637 104.403V104.403C265.716 104.525 265.807 104.727 265.911 105.01V105.01C266.025 105.324 266.062 105.546 266.022 105.677V105.677C266.005 105.799 265.885 105.939 265.662 106.096 265.446 106.25 265.181 106.385 264.867 106.5V106.5C264.584 106.603 264.313 106.665 264.054 106.685 263.801 106.703 263.64 106.666 263.573 106.574V106.574C263.112 105.95 262.639 105.184 262.156 104.274V104.274C261.534 103.211 261.045 102.436 260.69 101.952V101.952C260.508 101.697 260.21 101.482 259.797 101.305 259.38 101.137 259.037 101.088 258.77 101.159V101.159C257.484 101.568 256.178 102.002 254.849 102.462V102.462C253.834 102.806 252.84 103.215 251.865 103.688V103.688C251.038 104.08 250.485 104.474 250.207 104.87 249.928 105.266 249.884 105.723 250.073 106.241V106.241C250.224 106.651 250.583 107.192 251.15 107.866V107.866C251.484 108.215 251.706 108.543 251.819 108.851V108.851C252 109.345 251.857 109.794 251.39 110.197V110.197C251.238 110.342 251.071 110.447 250.89 110.513V110.513C250.553 110.637 250.237 110.613 249.941 110.441 249.642 110.277 249.338 110.016 249.029 109.658V109.658C248.461 108.984 248.018 108.251 247.701 107.459V107.459C247.303 106.374 247.194 105.256 247.374 104.104 247.553 102.951 248.019 101.92 248.771 101.008 249.526 100.103 250.539 99.462 251.809 99.086V99.086C252.311 98.929 253.093 98.656 254.154 98.268V98.268C255.834 97.652 257.516 96.964 259.199 96.204V96.204C259.347 96.122 259.425 95.991 259.434 95.81 259.443 95.629 259.421 95.344 259.366 94.954V94.954C259.25 94.32 259.25 93.879 259.364 93.632Z" fill="#ffffff" data-fill-palette-color="primary"></path><path d="M7.584 144.144c0-6.453 5.231-11.685 11.685-11.685 6.453 0 11.685 5.231 11.684 11.685 0 6.453-5.231 11.685-11.684 11.685-6.453 0-11.685-5.231-11.685-11.685zM250.136 144.144c0-6.453 5.231-11.685 11.685-11.685 6.453 0 11.685 5.231 11.684 11.685 0 6.453-5.231 11.685-11.684 11.685-6.453 0-11.685-5.231-11.685-11.685z" fill="#ffffff" data-fill-palette-color="primary"></path></svg></g></svg></g></svg></g><g></g></svg></g><defs></defs></svg><rect width="280" height="280" fill="none" stroke="none" visibility="hidden"></rect></g></svg></g></svg>